<?xml version="1.0" encoding="iso-8859-1"?>
<!-- Generator: Adobe Illustrator 18.0.0, SVG Export Plug-In . SVG Version: 6.00 Build 0)  -->
<!DOCTYPE svg PUBLIC "-//W3C//DTD SVG 1.1//EN" "http://www.w3.org/Graphics/SVG/1.1/DTD/svg11.dtd">
<svg version="1.1" id="Capa_1" xmlns="http://www.w3.org/2000/svg" xmlns:xlink="http://www.w3.org/1999/xlink" x="0px" y="0px"
	 viewBox="0 0 199.09 199.09" style="enable-background:new 0 0 199.09 199.09;" xml:space="preserve">
<path d="M61.571,75.927c0.096-19.324,10.287-37.944,25.688-50.05c22.67-17.82,55.947-21.033,80.867-6.017
	c6.806,4.101,12.731,9.481,17.356,15.82c2.928,4.013-1.449,9.231-5.886,6.995c-6.557-3.305-13.3-6.082-20.809-7.61
	c-14.16-2.882-29.042-2.011-42.706,2.775c-12.683,4.443-24.175,11.983-33.218,21.923c-5.113,5.621-9.025,11.801-12.428,18.318
	C68.16,82.439,61.547,80.845,61.571,75.927z M167.166,60.768c-16.362-11.199-37.492-15.32-56.126-9.371
	c-4.692,1.498-4.177,8.283,0.68,9.101c7.249,1.222,14.336,3.033,21.262,6.159c12.248,5.529,22.97,14.128,31.115,24.817
	c8.774,11.516,14.201,25.401,15.836,39.759c0.867,7.615,0.309,14.886-0.808,22.144c-0.755,4.91,5.56,7.461,8.471,3.436
	c4.599-6.358,7.885-13.655,9.683-21.397C203.8,107.33,190.754,76.912,167.166,60.768z M141.182,94.279
	c1.114,7.537,1.578,15.1,0.647,22.945c-1.634,13.767-6.933,27.172-15.206,38.309c-8.494,11.434-19.929,20.55-33.035,26.131
	c-6.581,2.802-13.196,4.375-19.944,5.477c-4.857,0.793-5.296,7.591-0.614,9.105c7.27,2.353,15.004,3.253,22.716,2.674
	c29.17-2.19,54.444-24.435,62.464-52.239c5.453-18.905,2.764-40.1-8.588-55.856C146.751,86.839,140.464,89.419,141.182,94.279z
	 M72.817,165.193c19.915-0.457,39.571-9.562,51.21-25.403c2.918-3.972-1.485-9.162-5.898-6.967
	c-6.581,3.273-13.379,5.975-20.816,7.509c-14.126,2.914-29.058,2.018-42.694-2.741c-12.728-4.442-24.146-11.975-33.247-21.905
	c-5.177-5.649-8.999-11.859-12.361-18.387c-2.275-4.416-8.884-2.768-8.873,2.199c0.017,7.847,1.647,15.681,4.743,23
	C16.082,148.981,44.332,165.847,72.817,165.193z M69.617,130.543c4.67,1.543,8.23-4.254,4.787-7.766
	c-5.145-5.25-9.814-10.881-13.585-17.482c-6.902-12.083-10.607-25.983-10.615-39.909c-0.007-13.972,3.718-27.791,10.587-39.931
	c3.773-6.669,8.499-12.223,13.669-17.439c3.497-3.528-0.113-9.304-4.834-7.759c-7.458,2.44-14.406,6.412-20.41,11.618
	C27.234,30.937,20.007,63.572,29.951,90.644C36.705,109.032,51.267,124.482,69.617,130.543z"/>
<g>
</g>
<g>
</g>
<g>
</g>
<g>
</g>
<g>
</g>
<g>
</g>
<g>
</g>
<g>
</g>
<g>
</g>
<g>
</g>
<g>
</g>
<g>
</g>
<g>
</g>
<g>
</g>
<g>
</g>
</svg>
