<svg xmlns="http://www.w3.org/2000/svg" width="1001.108" height="672.719" viewBox="124.429 274.748 1001.108 672.719"><path fill="#FDFDFD" d="m626.375 326.75 3.57-.002c18.872.017 37.347.633 56.055 3.252l3.744.52c29.1 4.185 57.383 11.178 85.256 20.48l2.917.971C821.967 366.843 864.868 388.99 902 417a2197 2197 0 0 0 4.488 3.277c8.708 6.351 17.284 12.757 25.512 19.723l3.129 2.605a472 472 0 0 1 18.922 16.692c2.16 2.004 4.376 3.93 6.613 5.848 4.859 4.236 9.409 8.777 13.954 13.343a1509 1509 0 0 0 4.337 4.33c5.228 5.225 10.253 10.556 15.045 16.182q1.568 1.788 3.14 3.57c6.698 7.64 13.181 15.395 19.354 23.465a821 821 0 0 0 3.168 4.106 481 481 0 0 1 40.054 60.587 407 407 0 0 0 4.21 7.229l2.824 4.856 1.344 2.228 1.203 2.104 1.073 1.823c1.205 3.885.057 7.143-1.654 10.707l-1.638 2.712-1.838 3.064-1.99 3.236-2.048 3.368c-6.067 9.89-12.488 19.486-19.202 28.945l-1.616 2.299c-7.697 10.937-15.808 21.44-24.384 31.701l-1.493 1.793c-5.29 6.345-10.674 12.591-16.241 18.695a375 375 0 0 0-5.459 6.212c-3.52 4.025-7.204 7.843-10.99 11.616l-1.998 2a3324 3324 0 0 1-4.152 4.148q-3.148 3.14-6.286 6.292l-4.065 4.06-1.863 1.87c-4.324 4.3-8.835 8.333-13.453 12.314a1393 1393 0 0 0-3.465 3.07c-8.578 7.569-17.465 14.603-26.611 21.47a262 262 0 0 0-4.94 3.866C849.8 844.411 768.095 877.794 686 890l-3.158.5c-36.628 5.629-77.255 5.286-113.842-.5l-3.905-.602C477.35 875.64 395.4 836.633 318 775l-1.55-1.292c-6.711-5.597-13.294-11.299-19.72-17.224-1.423-1.295-2.851-2.587-4.321-3.83-6.69-5.682-12.827-11.921-19.018-18.133a2754 2754 0 0 0-5.858-5.851c-6.057-6.054-12.017-12.112-17.533-18.67a1159 1159 0 0 0-3.14-3.57c-6.742-7.69-13.233-15.515-19.462-23.624a450 450 0 0 0-4.27-5.408c-9.603-12.138-18.14-24.99-26.548-37.972a239 239 0 0 0-7.81-11.242c-7.915-11.096-7.915-11.096-7.675-16.215 1.161-4.479 3.66-8.026 6.346-11.732 2.364-3.392 4.346-6.988 6.392-10.579 5.036-8.784 10.362-17.36 16.167-25.658l1.306-1.882c21.84-31.453 46.041-60.503 73.069-87.618l2.81-2.824c5.112-5.1 10.331-9.98 15.815-14.676q2.412-2.18 4.813-4.375C322.918 439.028 339.255 426.509 356 415l2.52-1.74c19.6-13.479 39.87-26.04 61.384-36.253 2.353-1.13 4.685-2.3 7.018-3.472C476.92 348.692 531.474 333.49 587 328l2.914-.29c12.128-1.034 24.297-.954 36.461-.96" id="svg-layer-1" style="pointer-events: all;"/><path d="m616.418 393.797 2.337-.021q3.716-.025 7.433-.026l2.571-.002c13.292.017 26.181.588 39.241 3.252l2.614.52C705.506 404.657 738.67 420.105 766 443l1.797 1.49c11.541 9.586 21.91 19.686 31.203 31.51l2.469 3.059c6.3 7.887 11.577 16.154 16.531 24.941l1.12 1.951c29.872 52.304 34.77 114.434 19.314 172.049-3.642 12.886-8.496 25.009-14.434 37l-1.052 2.125C809.072 744.797 788.337 769.905 764 789l-2.879 2.36C739.44 808.748 713.66 821.381 687 829l-2.52.726c-55.705 15.615-114.924 6.596-165.132-21.194-9.63-5.51-18.646-11.65-27.348-18.532l-2.578-2.036c-6.706-5.39-12.922-11.113-18.985-17.214l-2.782-2.797c-6.51-6.624-12.394-13.28-17.655-20.953l-1.202-1.706c-18.092-25.692-30.312-54.246-37.048-84.919l-.458-2.056c-2.946-14.37-3.674-28.943-3.604-43.569l.005-2.432c.05-12.967.72-25.578 3.307-38.318l.52-2.602C418.647 536.81 432.762 504.543 455 477l1.337-1.684C467.863 460.867 481.022 447.838 496 437l1.873-1.37c33.978-24.663 76.135-41.572 118.545-41.833" id="svg-layer-2" style="pointer-events: all;"/><path d="m626.875 274.75 3.775-.002c19.64.017 38.868.636 58.35 3.252l3.877.504C782.217 290.417 865.835 325.822 950 388l1.818 1.393C960.806 396.3 969.455 403.555 978 411l2.305 1.996A838 838 0 0 1 986 418l2.316 2.035c5.599 4.968 10.914 10.134 16.141 15.485 2.543 2.48 2.543 2.48 5.176 4.585 2.115 1.694 3.717 3.313 5.43 5.395 3.144 3.688 6.49 7.1 9.937 10.5 4.55 4.506 8.862 9.11 13 14q1.35 1.556 2.703 3.11c7.033 8.096 13.797 16.36 20.297 24.89l1.552 2.031c22.676 29.823 41.587 61.564 58.448 94.969l1.653 3.266c2.343 4.755 2.585 9.04 2.66 14.297l.087 1.978c.137 10.894-5.71 20.404-10.963 29.584-.616 1.09-1.233 2.179-1.87 3.302a402 402 0 0 1-15.391 24.818 446 446 0 0 0-3.176 4.825c-18.365 28.083-39.64 54.555-62.441 79.153a425 425 0 0 0-6.684 7.465c-4.326 4.819-8.867 9.413-13.437 14l-2.147 2.16a232 232 0 0 1-12.382 11.488c-2.983 2.6-5.844 5.325-8.721 8.039-5.863 5.48-11.92 10.612-18.188 15.625q-1.788 1.471-3.57 2.95C939.576 840.14 910.374 859.946 880 877l-2.653 1.503C833.608 903.206 786.805 921.238 738 933l-3.478.839c-15.353 3.617-30.76 6.023-46.397 7.973l-2.558.32c-39.244 4.838-80.36 5.335-119.567-.132l-2.03-.28C497.217 932.427 432.433 909.462 374 876l-2.167-1.226c-35.327-20.025-68.239-43.96-99.1-70.299-1.768-1.505-3.545-3-5.323-4.495-6.338-5.348-12.388-10.813-18.187-16.753a103 103 0 0 0-6.16-5.664c-7.217-6.195-13.896-13.047-20.063-20.282-2.169-2.474-4.409-4.87-6.66-7.268-5.23-5.568-10.256-11.206-15.031-17.173-2.2-2.707-4.46-5.347-6.748-7.98-5.368-6.182-10.45-12.486-15.274-19.109a556 556 0 0 0-4.428-5.915c-12.174-16.187-23.185-33.049-33.422-50.524l-1.695-2.893c-15.313-26.504-15.313-26.504-12.264-40.635 2.018-7.007 5.041-13.234 8.46-19.659l1.741-3.307C143.09 572.648 148.922 562.78 155 553l2.96-4.828C164.818 537.075 172.228 526.47 180 516l2.434-3.3c8.926-12.015 18.233-23.638 28.045-34.937a551 551 0 0 0 4.56-5.368c5.58-6.624 11.325-12.9 17.52-18.954a96 96 0 0 0 5.816-6.378c3.605-4.231 7.68-7.896 11.785-11.63 3.129-2.846 6.187-5.727 9.153-8.745 2.971-3.01 6.038-5.835 9.246-8.59a649 649 0 0 0 5.789-5.04A492 492 0 0 1 300 392l2.173-1.678c12.707-9.797 25.813-18.861 39.245-27.633a737 737 0 0 0 6.3-4.17c70.873-46.75 153.038-74.165 279.157-83.769M428 373l-2.306 1.113A629 629 0 0 0 412 381l-1.999 1.02C369.41 402.786 332.645 430.37 299 461l-2.473 2.191c-7.351 6.59-14.352 13.526-21.34 20.497l-1.514 1.506C267.894 490.95 262.287 496.787 257 503a1516 1516 0 0 1-3.14 3.57c-24.473 27.913-45.935 58.505-64.423 90.68l-1.517 2.634A368 368 0 0 0 184 607l-1.129 1.914c-.934 1.754-.934 1.754-1.871 5.086 1.005 2.824 1.933 4.623 3.563 7.063l1.334 2.124c1.669 2.626 3.385 5.219 5.103 7.813q1.13 1.73 2.256 3.46c9.06 13.906 18.173 27.783 28.42 40.852 1.368 1.744 2.72 3.5 4.07 5.258 8.528 11.045 17.603 21.619 26.995 31.936a447 447 0 0 1 4.155 4.647c6.177 6.99 12.701 13.597 19.306 20.18a2504 2504 0 0 1 5.581 5.587C287.685 748.826 293.6 754.628 300 760q1.643 1.425 3.281 2.852C370.361 820.786 450.045 865.386 569 890l3.19.496c39.29 5.84 81.631 4.892 120.81-1.496l2-.323C776.25 875.47 853.018 840.185 918 790c.271-.21.271-.21 1.645-1.267 11.308-8.729 22.276-17.82 32.833-27.447a404 404 0 0 1 4.646-4.152c7.306-6.446 14.187-13.292 21.063-20.19a2909 2909 0 0 1 6.022-6.016C990.35 724.79 996.423 718.664 1002 712q1.458-1.678 2.922-3.352a525 525 0 0 0 18.78-22.972 694 694 0 0 1 3.716-4.742c11.649-14.88 22.275-30.505 32.152-46.608q1.457-2.37 2.934-4.726a753 753 0 0 0 4.309-6.975l1.33-2.108c2.925-4.867 2.925-4.867 2.603-7.94-.768-2.654-1.745-4.904-3.012-7.358-.47-.914-.941-1.827-1.427-2.768l-1.557-2.951-1.626-3.09c-12.69-23.803-27.973-46.3-44.626-67.499-1.442-1.84-2.87-3.69-4.295-5.544-14.107-18.284-29.857-35.08-46.14-51.43l-2.366-2.38c-4.186-4.173-8.455-8.184-12.935-12.04-2.231-1.921-4.402-3.905-6.574-5.892-5.252-4.727-10.658-9.228-16.188-13.625l-1.97-1.567C902.172 415.929 874.818 398.055 846 382l-2.547-1.42C795.075 353.872 740.578 337.582 686 330l-3.576-.5C595.678 317.998 506.397 335.14 428 373" id="svg-layer-3" style="pointer-events: all;"/><path fill="#FDFDFD" d="m627.063 461.313 2.41-.012c3.608.998 6.058 2.964 8.527 5.699 1.514 2.756 2.48 5.621 3.453 8.605l.878 2.531a620 620 0 0 1 1.79 5.256 536 536 0 0 0 2.568 7.423c1.412 3.997 2.807 8 4.196 12.005A2631 2631 0 0 0 670 556c18.487 1.53 36.974 2.646 55.5 3.563q5.682.282 11.365.57 3.489.177 6.978.348c4.914.249 9.823.532 14.725.945l2.35.196c4.485.814 8.225 3.92 11.082 7.378.895 2.685 1.221 4.528 1.313 7.313l.113 2.238c-1.042 5.993-5.374 9.517-10.051 12.949q-1.74 1.295-3.477 2.594l-1.891 1.402c-3.71 2.78-7.354 5.649-11.007 8.504a2765 2765 0 0 1-15.5 12c-7.453 5.722-14.866 11.497-22.28 17.271Q703.612 637.637 698 642a2711 2711 0 0 0 11.836 43.77l1.018 3.643a9289 9289 0 0 0 5.129 18.287l1.92 6.859.901 3.181c4.087 14.653 4.087 14.653 1.223 21.463-1.904 3.33-4.67 5.118-8.027 6.797-6.693.861-10.972-.414-16.437-4.187l-2.04-1.34c-6.935-4.61-13.653-9.543-20.37-14.461-4.123-3.01-8.343-5.842-12.61-8.64-6.229-4.129-12.323-8.46-18.448-12.738a1168 1168 0 0 0-5.657-3.925 105 105 0 0 1-4.29-3.152c-1.53-1.166-1.53-1.166-4.148-2.557-3.934.828-7.013 3.193-10.312 5.438l-3.192 2.164Q612.747 703.799 611 705l-1.859 1.272a4141 4141 0 0 0-12.08 8.31 2474 2474 0 0 1-6.041 4.145c-6.244 4.276-12.467 8.575-18.633 12.962-2.825 2.005-5.661 3.993-8.5 5.979a374 374 0 0 0-5.051 3.644c-5.202 3.635-9.153 5.699-15.61 5.176-4.782-1.048-7.352-3.235-10.101-7.176-2.993-8.811-.14-16.999 2.383-25.578q.552-1.921 1.1-3.846c.964-3.368 1.942-6.732 2.923-10.096.975-3.35 1.936-6.704 2.899-10.058 2.796-9.728 5.6-19.453 8.464-29.162l.858-2.937a844 844 0 0 1 1.566-5.294c2.222-7.63 2.222-7.63 1.682-11.341-1.93-1.908-3.692-3.373-5.875-4.937l-3.863-2.899-2.093-1.546c-3.793-2.83-7.505-5.764-11.231-8.68a4107 4107 0 0 0-23.525-18.154q-4.853-3.719-9.692-7.456l-3.621-2.789q-2.898-2.232-5.788-4.476l-1.82-1.397c-4.053-3.16-6.155-5.244-7.367-10.354-.404-4.066.538-6.816 2.281-10.453 3.422-3.992 7.472-5.67 12.52-6.523q2.163-.144 4.33-.233l2.407-.145c2.608-.153 5.216-.28 7.825-.407l5.481-.312c4.8-.274 9.602-.526 14.404-.773 5.814-.303 11.625-.63 17.437-.955 4.527-.252 9.054-.501 13.582-.738 7.895-.417 15.75-.88 23.608-1.773l1.123-3.233 1.596-4.591.877-2.525q2.456-7.063 4.93-14.12l2.099-5.992 1.082-3.086a2194 2194 0 0 0 6.536-18.975c1.4-4.11 2.816-8.214 4.235-12.317a785 785 0 0 0 2.01-5.926c.932-2.78 1.89-5.549 2.856-8.317l.807-2.476c2.388-6.704 7.06-13.372 14.912-13.13" id="svg-layer-4" style="pointer-events: all;"/></svg>
